# xmcd CD database file
#
# Track frame offsets:
#	150
#	17652
#	32629
#	51451
#	68174
#	89621
#	107408
#	121337
#	137016
#	155169
#	180915
#
# Disc length: 2690 seconds
#
# Revision: 1
# Processed by: cddbd v1.5.2PL0 Copyright (c) Steve Scherf et al.
# Submitted via: CDex 1.51
#
DISCID=8f0a800b
DTITLE=The Fallout Trust - In Case Of The Flood
DYEAR=2006
DGENRE=Blues
TTITLE0=When We Are Gone
TTITLE1=Them Or It
TTITLE2=Before The Light Goes
TTITLE3=Where There's No Cold To Feel
TTITLE4=TVM
TTITLE5=Cover Up The Man
TTITLE6=Washout
TTITLE7=One Generation Wall
TTITLE8=No Beacon
TTITLE9=Your Message
TTITLE10=Take Comfort From Me
EXTD=YEAR: 2006
EXTT0=
EXTT1=
EXTT2=
EXTT3=
EXTT4=
EXTT5=
EXTT6=
EXTT7=
EXTT8=
EXTT9=
EXTT10=
PLAYORDER=
